<?xml version="1.0" encoding="UTF-8"?>
<!DOCTYPE svg PUBLIC "-//W3C//DTD SVG 1.1//EN" "http://www.w3.org/Graphics/SVG/1.1/DTD/svg11.dtd">
<svg version="1.1" xmlns="http://www.w3.org/2000/svg" xmlns:xlink="http://www.w3.org/1999/xlink" x="0" y="0" width="89.833" height="89.833" viewBox="0, 0, 89.833, 89.833">
  <g id="Layer_1" transform="translate(-188.348, -239.112)">
    <g>
      <path d="M203.621,239.112 L262.909,239.112 C271.343,239.112 278.181,245.95 278.181,254.384 L278.181,313.672 C278.181,322.107 271.343,328.945 262.909,328.945 L203.621,328.945 C195.186,328.945 188.348,322.107 188.348,313.672 L188.348,254.384 C188.348,245.95 195.186,239.112 203.621,239.112 z" fill="#4ADE80"/>
      <g>
        <path d="M233.765,303.445 L233.765,265.612" fill="#000000"/>
        <path d="M233.765,303.445 L233.765,265.612" fill-opacity="0" stroke="#000000" stroke-width="2.5"/>
      </g>
      <g>
        <path d="M260.515,284.57 L233.765,257.945" fill="#000000"/>
        <path d="M260.515,284.57 L233.765,257.945" fill-opacity="0" stroke="#000000" stroke-width="2.5"/>
      </g>
      <g>
        <path d="M233.765,311.112 L207.015,284.487" fill="#000000"/>
        <path d="M233.765,311.112 L207.015,284.487" fill-opacity="0" stroke="#000000" stroke-width="2.5"/>
      </g>
      <path d="M233.265,318.945 C228.846,318.945 225.265,315.363 225.265,310.945 C225.265,306.527 228.846,302.945 233.265,302.945 C237.683,302.945 241.265,306.527 241.265,310.945 C241.265,315.363 237.683,318.945 233.265,318.945 z" fill="#000000"/>
      <path d="M206.39,291.987 C201.971,291.987 198.39,288.405 198.39,283.987 C198.39,279.568 201.971,275.987 206.39,275.987 C210.808,275.987 214.39,279.568 214.39,283.987 C214.39,288.405 210.808,291.987 206.39,291.987 z" fill="#000000"/>
      <path d="M259.806,292.028 C255.388,292.028 251.806,288.447 251.806,284.028 C251.806,279.61 255.388,276.028 259.806,276.028 C264.225,276.028 267.806,279.61 267.806,284.028 C267.806,288.447 264.225,292.028 259.806,292.028 z" fill="#000000"/>
      <path d="M233.265,265.112 C228.846,265.112 225.265,261.53 225.265,257.112 C225.265,252.693 228.846,249.112 233.265,249.112 C237.683,249.112 241.265,252.693 241.265,257.112 C241.265,261.53 237.683,265.112 233.265,265.112 z" fill="#000000"/>
    </g>
  </g>
</svg>
